<?xml version="1.0" standalone="no"?><!DOCTYPE svg PUBLIC "-//W3C//DTD SVG 1.1//EN" "http://www.w3.org/Graphics/SVG/1.1/DTD/svg11.dtd"><svg t="1776934165235" class="icon" viewBox="0 0 1024 1024" version="1.1" xmlns="http://www.w3.org/2000/svg" p-id="8443" xmlns:xlink="http://www.w3.org/1999/xlink" width="200" height="200"><path d="M513.792 63.68a54.784 54.784 0 0 1 47.36 27.456l38.272 66.816h191.36c17.28 0 33.408 8.128 43.712 21.952l3.712 5.44 59.264 103.168a55.296 55.296 0 0 1-0.384 56l-1.28 2.176a52.224 52.224 0 0 1-3.072 4.288l-1.92 2.24-36.032 63.04 94.208 164.864 2.56 3.904 2.88 5.376c5.76 14.08 7.04 30.72 2.496 44.608l-2.56 5.76-54.784 95.36a54.656 54.656 0 0 1-47.04 27.2l-76.672 0.32-95.68 168.32a54.784 54.784 0 0 1-40.768 26.88l-6.336 0.32-118.464 0.448h-3.52a54.4 54.4 0 0 1-44.224-27.392l-41.792-72.96H238.72l-3.072 0.384-3.264 0.128h-1.28a54.784 54.784 0 0 1-47.36-27.392l-54.08-94.272a54.016 54.016 0 0 1-0.64-55.296l38.144-67.52-95.616-167.36a54.016 54.016 0 0 1-3.584-49.408l2.944-5.76 58.048-103.04a53.504 53.504 0 0 1 45.184-28.352l1.728-0.256a35.072 35.072 0 0 1 9.28 0.512H261.12l93.12-163.264 1.088-2.688 2.176-4.416a54.784 54.784 0 0 1 47.424-27.584h108.8z m-4.608 62.464H410.24L306.56 308.48l-9.024 15.744H182.4l-1.088-0.192-53.952 95.744L230.4 599.68l8.768 15.36-8.704 15.552-44.8 79.232 49.92 86.912h225.856l8.96 15.68 48.512 84.672 109.44-0.448 102.336-179.648 8.832-15.744h18.112l90.112-0.512 49.152-85.44-1.024-1.536-104.128-181.952-8.896-15.488 8.896-15.552 46.848-82.048 2.432-3.008-54.72-95.36H563.2L554.24 204.8 509.184 126.08z m91.84 278.4a57.28 57.28 0 0 1 49.728 85.76l-88.96 155.584a57.28 57.28 0 0 1-99.52 0l-88.832-155.52a57.28 57.28 0 0 1 49.728-85.76H600.96z m-168.896 62.528L512 606.912 592 467.072H432.064h0.064z" fill="#000000" p-id="8444"></path></svg>